HIERARCHY
ROOT Hips
{
    OFFSET 0.000000 0.000000 0.000000
    CHANNELS 6 Xposition Yposition Zposition Zrotation Xrotation Yrotation
    JOINT Spine
    {
        OFFSET -0.000000 14.517291 0.000000
        CHANNELS 3 Zrotation Xrotation Yrotation
        JOINT Spine1
        {
            OFFSET -0.000000 37.558300 0.000000
            CHANNELS 3 Zrotation Xrotation Yrotation
            JOINT Neck
            {
                OFFSET -0.000000 37.404057 3.400369
                CHANNELS 3 Zrotation Xrotation Yrotation
                JOINT Head
                {
                    OFFSET -0.000000 24.785618 -3.540803
                    CHANNELS 3 Zrotation Xrotation Yrotation
                    End Site
                    {
                        OFFSET -0.000000 35.408028 0.000000
                    }
                }
            }
            JOINT LeftShoulder
            {
                OFFSET 6.992933 33.973492 -0.192664
                CHANNELS 3 Zrotation Xrotation Yrotation
                JOINT LeftArm
                {
                    OFFSET 21.527611 0.000000 0.000000
                    CHANNELS 3 Zrotation Xrotation Yrotation
                    JOINT LeftForeArm
                    {
                        OFFSET 56.353916 0.000000 0.000000
                        CHANNELS 3 Zrotation Xrotation Yrotation
                        JOINT LeftHand
                        {
                            OFFSET 47.774071 0.000000 0.000000
                            CHANNELS 3 Zrotation Xrotation Yrotation
                            End Site
                            {
                                OFFSET 26.556021 0.000000 0.000000
                            }
                        }
                    }
                }
            }
            JOINT RightShoulder
            {
                OFFSET -7.065357 33.973492 -0.192664
                CHANNELS 3 Zrotation Xrotation Yrotation
                JOINT RightArm
                {
                    OFFSET -21.527611 0.000000 0.000000
                    CHANNELS 3 Zrotation Xrotation Yrotation
                    JOINT RightForeArm
                    {
                        OFFSET -56.353916 0.000000 0.000000
                        CHANNELS 3 Zrotation Xrotation Yrotation
                        JOINT RightHand
                        {
                            OFFSET -47.774071 0.000000 0.000000
                            CHANNELS 3 Zrotation Xrotation Yrotation
                            End Site
                            {
                                OFFSET -26.556021 0.000000 0.000000
                            }
                        }
                    }
                }
            }
        }
    }
    JOINT LeftUpLeg
    {
        OFFSET 17.704014 0.000000 0.000000
        CHANNELS 3 Zrotation Xrotation Yrotation
        JOINT LeftLeg
        {
            OFFSET -0.000000 -81.181816 0.000000
            CHANNELS 3 Zrotation Xrotation Yrotation
            JOINT LeftFoot
            {
                OFFSET -0.000000 -62.821102 0.000000
                CHANNELS 3 Zrotation Xrotation Yrotation
                JOINT LeftToeBase
                {
                    OFFSET -0.000000 -11.507608 26.556021
                    CHANNELS 3 Zrotation Xrotation Yrotation
                    End Site
                    {
                        OFFSET -0.000000 0.000000 7.081605
                    }
                }
            }
        }
    }
    JOINT RightUpLeg
    {
        OFFSET -17.704014 0.000000 0.000000
        CHANNELS 3 Zrotation Xrotation Yrotation
        JOINT RightLeg
        {
            OFFSET -0.000000 -81.181816 0.000000
            CHANNELS 3 Zrotation Xrotation Yrotation
            JOINT RightFoot
            {
                OFFSET -0.000000 -62.821102 0.000000
                CHANNELS 3 Zrotation Xrotation Yrotation
                JOINT RightToeBase
                {
                    OFFSET -0.000000 -11.507608 26.556021
                    CHANNELS 3 Zrotation Xrotation Yrotation
                    End Site
                    {
                        OFFSET -0.000000 0.000000 7.081605
                    }
                }
            }
        }
    }
}
MOTION
Frames:    5
Frame Time:    0.008333
1.910178    149.655014    29.078209    3.261899    0.643201    -58.413651    2.649153    0.597744    -1.087853    -3.019911    2.483686    -0.293216    14.340272    3.129093    11.323019    -11.070965    3.582931    8.823537    9.691100    4.278248    -15.509853    -10.720549    -3.297935    -21.869417    10.940601    0.158337    -55.158455    -0.384824    6.032596    -41.884464    -11.589120    -0.197498    -4.725599    26.871857    -21.138680    39.873070    7.885430    -20.366066    106.033745    13.702192    -26.592594    30.247540    29.032558    -21.253952    -8.718549    -8.656147    15.646889    -18.235224    -15.756458    -10.976609    45.625137    0.000000    0.000000    0.000000    -8.634738    -22.523096    -3.201108    10.094274    55.325222    -7.816074    0.808447    -31.199211    -6.905149    0.000000    0.000000    0.000000    
1.934549    149.770782    28.904224    3.273309    0.631106    -57.998489    2.598444    0.532125    -1.213254    -2.976073    2.534777    -0.335296    14.257896    3.054103    11.252072    -10.917432    3.666273    8.774797    9.687598    4.220521    -15.561285    -10.734833    -3.332132    -21.857704    10.894822    0.167223    -55.039242    -0.350209    5.990619    -42.135719    -11.565493    -0.170082    -4.787670    26.916357    -21.161493    39.825565    7.856276    -20.351522    106.119476    13.687737    -26.565332    30.218529    29.060087    -21.282410    -7.679683    -8.831288    15.652714    -17.359484    -15.346634    -10.349482    45.987030    0.000000    0.000000    0.000000    -8.637655    -22.412661    -3.422551    9.975036    55.177090    -7.824502    0.814427    -31.121899    -7.025399    0.000000    0.000000    0.000000    
1.962006    149.897461    28.762739    3.287357    0.632883    -57.568150    2.565063    0.436926    -1.349469    -2.934769    2.611652    -0.380454    14.215800    2.981550    11.181376    -10.828242    3.756350    8.715107    9.699183    4.215678    -15.545807    -10.766322    -3.396763    -21.973536    10.797407    0.085310    -54.965744    -0.454085    5.887967    -41.890251    -11.539508    -0.153116    -4.833844    26.956732    -21.191948    39.751965    7.806706    -20.335972    106.195427    13.669950    -26.509565    30.206779    29.041525    -21.269373    -6.471597    -8.934049    15.540190    -16.132853    -14.620886    -9.192817    45.869862    0.000000    0.000000    0.000000    -8.660531    -22.294262    -3.652202    9.918022    55.002815    -7.872538    0.784796    -31.016760    -7.173402    0.000000    0.000000    0.000000    
1.999420    150.030548    28.659435    3.298442    0.623834    -57.142914    2.550749    0.340909    -1.469697    -2.924360    2.694956    -0.419302    14.120304    2.905593    11.080686    -10.653222    3.837372    8.638747    9.710237    4.196977    -15.600945    -10.793946    -3.374897    -22.006088    10.841938    -0.020271    -54.864876    -0.521432    5.820125    -41.951973    -11.504159    -0.124520    -4.891549    26.998201    -21.232140    39.664127    7.777065    -20.303804    106.290550    13.637509    -26.470516    30.179331    29.012316    -21.270296    -5.233378    -9.015219    15.591324    -15.482581    -14.035239    -8.383618    46.101032    0.000000    0.000000    0.000000    -8.707572    -22.159077    -3.839411    9.917409    54.812969    -7.945851    0.766935    -30.912683    -7.340844    0.000000    0.000000    0.000000    
2.043488    150.164688    28.575226    3.307081    0.604317    -56.737030    2.517044    0.283154    -1.570204    -2.900748    2.746838    -0.452456    14.068697    2.812013    10.986807    -10.534294    3.954342    8.558858    9.733509    4.226550    -15.627077    -10.819021    -3.405864    -22.105564    10.890458    -0.066774    -54.727558    -0.616119    5.819199    -42.025208    -11.451637    -0.074255    -4.996685    27.035597    -21.241549    39.617435    7.723263    -20.321659    106.371605    13.619335    -26.440010    30.186335    28.977350    -21.258093    -4.048474    -9.158203    15.693109    -14.874055    -13.625151    -7.739649    46.404613    0.000000    0.000000    0.000000    -8.753543    -22.021317    -4.041803    9.843493    54.629608    -7.988429    0.780114    -30.807171    -7.463595    0.000000    0.000000    0.000000    
